<?xml version="1.0" encoding="UTF-8"?><!DOCTYPE svg PUBLIC "-//W3C//DTD SVG 1.0//EN" "http://www.w3.org/TR/2001/REC-SVG-20010904/DTD/svg10.dtd"><svg xmlns="http://www.w3.org/2000/svg" xmlns:xlink="http://www.w3.org/1999/xlink" height="110px" version="1.0" viewBox="0 0 110 110" width="110px" xml:space="preserve"><g id="Multicolor"><circle cx="55" cy="55" r="55" fill="#FABC3D"/><path d="M55 23c-12 0-31.695 14.003-32 30-.219 11.479 4 22 32 22 26 0 32-11.57 32-22 0-16-20-30-32-30z" fill="#FFF"/><ellipse cx="55" cy="83" rx="20" ry="4" fill="#F0F1F1"/><path d="M51 75h8v7c-2.667 1.333-5.333 1.333-8 0v-7z" fill="#CFD3D4"/><path d="M55 29c-9 0-24 11-24 22s9 12 9 12h30s9-1 9-12-15-22-24-22z" fill="#CFD3D4"/><path d="M55 51c-9.705 0-18.211 2.277-22.97 5.693C34.391 62.372 40 63 40 63h30s5.609-.628 7.97-6.307C73.211 53.277 64.705 51 55 51z" fill="#F37A10"/><path d="M35 83c0 2.209 8.954 4 20 4v-8c-11.046 0-20 1.791-20 4z" fill="#FFF"/><path d="M51 75v7c1.333.667 2.667 1 4 1v-8h-4z" fill="#F0F1F1"/></g><metadata><rdf:RDF xmlns:rdf="http://www.w3.org/1999/02/22-rdf-syntax-ns#" xmlns:rdfs="http://www.w3.org/2000/01/rdf-schema#" xmlns:dc="http://purl.org/dc/elements/1.1/"><rdf:Description about="https://iconscout.com/legal#licenses" dc:title="chair" dc:description="chair" dc:publisher="Iconscout" dc:date="2017-09-19" dc:format="image/svg+xml" dc:language="en"><dc:creator><rdf:Bag><rdf:li>Vincent Le Moign</rdf:li></rdf:Bag></dc:creator></rdf:Description></rdf:RDF></metadata></svg>